#!OML:ASF F:\VICON\USERDATA\INSTALL\rory3\rory3.ASF
:FULLY-SPECIFIED
:DEGREES
10
root 0.9929898426127433 17.9215975257772 -9.149277391580963 -3.1046561239991455 -6.520085574000568 -1.757500655415277
lfemur -19.983793266997274 -3.8295735943001876 -21.306397904267012
ltibia 29.415801215450827
lfoot -4.0185529928537 -0.8522636621435273
ltoes 2.193321183170466
rfemur -1.384726926241914 3.473180402607875 24.38150196091866
rtibia 58.970089039798054
rfoot 22.886769164851337 5.865888241210566
rtoes 9.354361426825388
lowerback 11.327888494808391 2.4531660593416946 2.6273670060136665
upperback -0.004022824659098159 3.6443777332813583 0.5746301694153598
thorax -6.231786977831303 1.7139472090347545 -1.4715413471533805
lowerneck -15.603710779243032 -3.3567578625404675 -1.2086610117506909
upperneck 22.64458451595304 -4.282280758421702 -0.43583216042509065
head 9.7710495189113 -2.14023636791682 -0.5026344665685387
lclavicle 6.563341229395196e-16 -1.057771374048619e-16
lhumerus -38.84308823947736 12.314288103780573 77.30711235834467
lradius 20.09150941843496
lwrist 0.0639001679634088
lhand -24.69381800277857 21.1400988105301
lfingers 7.12502
lthumb 1.807271996427819 51.11219879364537
rclavicle 6.563341229395196e-16 -1.057771374048619e-16
rhumerus -24.718805453251846 -15.088903744653713 -81.30819396452317
rradius 30.203892409568645
rwrist 0.8398903975987402
rhand -18.43519603219401 23.83989384842767
rfingers 7.12502
rthumb 7.850343966809641 -5.994326087973598
11
root 1.007664496549047 17.984292987859185 -8.202367874841048 -3.8010017020687705 -6.2826263744348925 -0.21218058523623462
lfemur -15.873495865146058 -4.707410934825589 -23.881994158041095
ltibia 29.432001206095315
lfoot -6.073610615276632 1.3206242697043091
ltoes 1.40723247049849
rfemur -8.595771965677635 1.7950656569914245 21.84770576368704
rtibia 69.15998358549086
rfoot 15.459876496310253 0.5356088370859169
rtoes 11.278288687807786
lowerback 11.264689063133146 2.262127323736677 1.134450532601896
upperback 0.41312821045435566 3.173879700254381 0.37754167214083556
thorax -5.842762887029012 1.5321788785972266 -0.7524804037710409
lowerneck -15.980004496589977 -2.9166512785230787 -1.1225322882766053
upperneck 22.71638368708614 -3.6565417412806855 -0.5433381445081186
head 9.861286491051379 -1.8540494782743944 -0.4807779627276114
lclavicle 6.563340180441155e-16 -1.0577716196333238e-16
lhumerus -37.049090969440705 9.983162048081509 78.80940448056715
lradius 21.583906358298815
lwrist 3.620754368971308
lhand -25.645613530349223 18.816502878811956
lfingers 7.12502
lthumb 0.8880634688996003 48.794402845638
rclavicle 6.563340180441155e-16 -1.0577716196333238e-16
rhumerus -24.60310563392076 -16.98020127047097 -80.8215950441745
rradius 26.888199399932997
rwrist 3.62006061469029
rhand -18.129798378844512 26.11538346708266
rfingers 7.12502
rthumb 8.145051620196659 -3.7075965928448613
12
root 0.9983787155301367 18.012690932406684 -7.30796833130243 -4.4926773097936215 -5.398939353192612 0.42598679187437627
lfemur -11.774398456215266 -5.237059330215726 -25.271192137441233
ltibia 28.64870165845153
lfoot -8.683377595934479 2.062813221721756
ltoes -0.011765005698639364
rfemur -14.82159768285753 -0.26148890368344535 20.724407449554015
rtibia 74.29208083845226
rfoot 4.603107213572706 -4.051083905686202
rtoes 8.237743016509949
lowerback 11.57078631053493 1.7366708014847254 0.5463599217977826
upperback 0.6633446857521964 2.401222930437973 0.4034373433050241
thorax -5.788613709544129 1.1694322104659969 -0.2772584238667035
lowerneck -15.972704618469773 -2.7951249830681273 -1.0545432959510144
upperneck 22.91278141982347 -3.372146732930855 -1.0757041137219119
head 9.917584601994271 -1.779292902908679 -0.6429312817253467
lclavicle 6.563340772970493e-16 -1.0577716883974543e-16
lhumerus -34.98939410372472 9.417203005692862 78.95590371234883
lradius 22.494304491541957
lwrist 3.54472458484301
lhand -25.868012485310043 19.8462010759587
lfingers 7.12502
lthumb 0.6731965143494261 49.8248010442862
rclavicle 6.563340772970493e-16 -1.0577716883974543e-16
rhumerus -25.146904784761283 -19.65419777236668 -80.28189624164226
rradius 25.43580246197274
rwrist 6.386074861227055
rhand -17.26740500540441 18.91721630689706
rfingers 7.12502
rthumb 8.97730499336988 -10.871783681709879
13
root 0.9695793946875104 18.030189665842645 -6.44788877024833 -4.6886860650997555 -3.8360746213421764 0.8551507004905554
lfemur -7.812880960319209 -5.024269974877181 -26.361790551156886
ltibia 27.951602061027195
lfoot -11.496094341791759 2.1589730859425114
ltoes 5.869355163160938
rfemur -20.87729351707179 -1.4421642068439473 20.265908137678306
rtibia 74.23598086848058
rfoot -1.9657663019622396 -6.045010316105271
rtoes 8.464772693296947
lowerback 11.731984860947104 0.934161112916568 -0.0008525395692662308
upperback 0.6277767553783362 1.274207642059526 0.5582043779980385
thorax -5.937581446754156 0.6322171448465371 0.3742408067101065
lowerneck -16.07240295389228 -2.7062976908335896 -1.5417260753465871
upperneck 23.445275272586336 -3.164620375396257 -0.8904008648124871
head 10.141277096095953 -1.7051562991417695 -0.4782170208629173
lclavicle 6.563340563712687e-16 -1.0577712430699417e-16
lhumerus -32.69479759546043 6.868087318835579 79.94639851835387
lradius 23.789701835350346
lwrist 4.514801830498337
lhand -25.505214190077186 25.426191306199375
lfingers 7.12502
lthumb 1.0235858095064074 55.403491291567555
rclavicle 6.563340563712687e-16 -1.0577712430699417e-16
rhumerus -26.656702427164785 -22.88509354573049 -78.74949964167861
rradius 23.971705548679154
rwrist 7.40695273774438
rhand -15.50091857894112 16.3959278096372
rfingers 7.12502
rthumb 10.681581423049778 -13.312572469114748
